<?xml version="1.0" encoding="utf-8"?>
<!-- Generator: Adobe Illustrator 25.4.1, SVG Export Plug-In . SVG Version: 6.00 Build 0)  -->
<svg version="1.1" id="Layer_1" xmlns="http://www.w3.org/2000/svg" xmlns:xlink="http://www.w3.org/1999/xlink" x="0px" y="0px"
	 viewBox="0 0 427.2 433.6" style="enable-background:new 0 0 427.2 433.6;" xml:space="preserve">
<style type="text/css">
	.st0{fill:#2D9B68;}
</style>
<g>
	<path class="st0" d="M197.6,310.7c-0.2-9.9,1.9-23.9,0.7-37.9c-0.2-2.3,0.5-5.8-2.8-6.1c-3.4-0.4-4.8,2.6-5.4,5.5
		c-1.7,9-3.3,18-4.9,27c-4.5,25-9.5,49.8-26.9,69.8c-9.8,11.3-21,20.8-36,24.9c-26.7,7.2-55.2-1.5-67.1-30.8
		c-2.4-5.8-5.4-11.4-8.4-17c-5.3-9.9-13.9-16.4-22.9-22.5C3.7,309.8-2.9,290,1.1,267c2.4-13.6,10.6-24.8,20.6-34.7
		C39,215.1,60.4,208.8,84,207.1c11.8-0.9,23.6-1,35.4-0.9c6.5,0,12.9,1.6,19.4,1c4.8-0.5,9.6-1,14.4-1.7c2.1-0.3,3.9-1.3,4.2-3.6
		c0.4-2.5-1.4-3.5-3.2-4.4c-2.3-1.2-4.6-1.7-7.2-1.8c-16.9-1-33.9-1.6-50.8-3.3c-19.2-2-38.3-5-54.8-16.3
		c-15.9-10.8-26.7-25.2-31.4-44c-2.9-11.8-3.6-23.6,0.1-35.4c3.2-10.1,10.4-17.2,18.3-23.8c6.8-5.7,14.5-10,22-14.6
		c7.8-4.9,13.9-10.9,17.8-19.5c5-11.2,12-21.1,22.1-28.4C106.5-1.3,124-2.3,142.4,3.9c26.8,9.1,42.4,28.6,50.8,54.8
		c8.2,25.7,9.5,52.3,10.1,78.9c0.1,4.3,1.2,8.2,2.7,12.1c0.7,1.7,1.8,3.3,4,3.4c2.3,0.1,3.1-1.7,4-3.2c1.1-1.7,1.5-3.7,1.6-5.7
		c0.8-15.3,2.4-30.5,2.3-45.9c-0.1-14.5,1.5-28.9,6.1-42.8c6.8-20.5,21-34.4,38.8-45.9c13-8.4,26.9-11.3,41.4-8.6
		c16.1,3,29.9,11.1,38.3,26.1c2,3.6,4.1,7.3,5.8,11c5.5,11.8,15.4,18.9,26.5,24.7c13.3,6.8,24.4,15.9,30.8,30
		c6.6,14.7,6.4,29.5,1,44.2c-10.7,29.5-33.2,44.8-63,51.5c-18,4.1-36.3,4.6-54.5,5.9c-7.3,0.5-14.6,0.9-21.9,1.3
		c-3.1,0.2-5.9,1.3-8.4,2.9c-1.4,0.9-2.7,2.2-2.3,4.1c0.5,1.8,1.9,2.7,3.7,3c12.5,1.8,25.1,2.9,37.8,1.6c20-2,40.1-3.1,59.3,3.8
		c26.5,9.4,47.2,25.7,57.1,53.2c8.1,22.4,0.8,45.7-21,59.5c-15.4,9.7-24,23-30.5,39.2c-7.9,19.8-23.2,30.8-44.4,33
		c-26.1,2.8-45.1-9.8-60.4-29.3c-12-15.2-18.5-33-22.8-51.6c-3.2-13.6-5.8-27.3-7.7-41.2c-0.4-2.8-1.4-5.5-4.7-5.5s-4.3,2.7-4.5,5.6
		c-1.2,16.3-1.3,32.6,0.8,48.8c2.7,20.7,8.1,40.7,16,60c6.2,15.3,13.8,29.8,22.2,44c1,1.7,3.5,3.5,2.2,5.7c-1.1,1.8-3.7,0.8-5.6,0.8
		c-9.5,0.1-19,0-28.5,0.1c-2.6,0-4.2-0.7-5.6-3.1c-8.6-14.3-13.6-29.8-17.4-45.9C197,361.3,197.1,338.1,197.6,310.7z M116.2,155.6
		c1.3,0.1,2.1-0.8,3-1.6c2-2,3.9-4.1,6.1-6c3.2-2.8,3.4-5.2,0.1-8.2c-5.6-5.2-10.8-10.9-16.3-16.2c-2.6-2.5-2.7-4.6,0-7.1
		c4.7-4.5,9.3-9.1,13.8-13.8c2.6-2.8,4.8-3,7.5-0.1c3.6,3.9,7.5,7.6,11.3,11.3c10,9.9,7.3,9.9,17.7,0c3.2-3.1,3.5-5.1,0.1-8.4
		c-14.3-13.9-28.1-28.3-42.4-42.2c-10.8-10.6-7.1-10.5-18.3,0c-2.9,2.7-3.3,4.8-0.2,7.6c4.7,4.3,8.9,9,13.5,13.3
		c2.9,2.7,3.4,4.9,0.2,7.8c-4.7,4.3-9.1,8.7-13.4,13.3c-2.8,3-5,3.3-7.8,0.2c-2.5-2.9-5.4-5.5-8.1-8.1c-10.2-10-7.6-10.4-18.4,0.2
		c-2.8,2.7-2.7,4.8,0,7.5c16.1,16,32,32,48,48C113.6,154.3,114.6,155.4,116.2,155.6z M113.6,298.1c-0.6-0.4-1.7-0.7-2.3-1.5
		c-4.9-5.9-9.7-11.9-14.5-17.8c-2.1-2.6-0.8-4.1,1.3-5.8c4.4-3.5,8.8-7.1,13.1-10.7c9.1-7.6,8.9-7.5,1.5-16.8
		c-3.1-3.9-5.2-3.7-8.8-0.7c-15.2,12.7-30.6,25.1-45.9,37.7c-11.2,9.2-10.7,6.5-1.3,18.3c2.1,2.7,4,3,6.6,0.7
		c4.9-4.2,10.1-8.2,15-12.4c2.9-2.5,5.1-2.5,7.5,0.6c4.3,5.5,8.8,10.8,13.3,16.2c1.7,2,1.7,3.8-0.5,5.5c-3.9,3.1-7.7,6.3-11.6,9.5
		c-8.8,7.3-9.2,6.5-2.1,14.3c0.7,0.7,1.2,1.6,1.8,2.4c2.2,3.5,4.3,3.6,7.6,0.9c16.6-13.8,33.5-27.3,50.2-41
		c6.2-5.1,6.1-5.1,1.3-11.3c-0.9-1.2-2-2.3-2.8-3.5c-2.3-3.5-4.5-4-7.9-1c-5.6,5-11.5,9.5-17.3,14.3
		C116.6,297,115.5,298,113.6,298.1z M299,155.5c1.8-0.3,2.8-1.7,3.9-2.8c14.1-14.1,28.3-28.2,42.3-42.4c10.5-10.7,11-7.1-0.5-19.1
		c-2.4-2.5-4.4-2.1-6.6,0.2c-4.7,4.9-9.7,9.6-14.4,14.5c-2.2,2.3-4,2.4-6.2,0.1c-4.8-5-9.8-10-14.8-14.8c-2.6-2.5-2.3-4.4,0.2-6.6
		c3.2-2.9,6.1-6.1,9.2-9.1c8.5-8.5,8.5-8.5,0.1-16.8c-4.3-4.3-4.9-4.3-9.2,0c-14.8,14.8-29.6,29.6-44.4,44.5
		c-7.5,7.6-7.2,6,0.1,12.5c1.1,1,2.3,2,3.2,3.1c2.4,2.9,4.4,2.6,7,0c5.4-5.6,11.1-11,16.5-16.6c2.4-2.5,4.4-2.4,6.7,0
		c4.6,4.8,9.3,9.5,14.1,14.1c2.9,2.7,2.6,4.8-0.2,7.5c-4,3.7-7.7,7.8-11.6,11.7c-9.5,9.6-9.3,7.3,0.2,16.9
		C295.9,153.4,297,155,299,155.5z M325.5,341c1.4,0.2,2.1-0.8,2.9-1.7c1.7-2,3.4-4.1,5.3-6c3.1-3,3-5.4-0.5-8.2
		c-5.1-4-9.9-8.3-14.9-12.5c-2.4-2-3.1-3.8-0.7-6.5c4.7-5.2,9.1-10.6,13.5-16c2.1-2.6,4.1-3,6.7-0.6c3.2,2.9,6.6,5.6,9.9,8.3
		c10.4,8.5,8.2,8.6,16.9-1.6c2.9-3.4,2.8-5.5-0.7-8.4c-15.3-12.6-30.5-25.2-45.5-38.1c-11.7-10.1-8.9-8.6-18,1.3
		c-2.9,3.2-2.5,5.1,0.7,7.6c5.9,4.6,11.4,9.7,17.3,14.3c2.9,2.3,3.7,4.3,1,7.3c-4.5,5.1-8.9,10.3-13.1,15.7c-2.4,3-4.4,2.9-7,0.5
		c-4-3.5-8-7-12.2-10.3c-10.2-8-7.6-10-17.6,2c-0.1,0.1-0.2,0.3-0.3,0.4c-2.3,2.5-1.9,4.6,0.6,6.8c17.4,14.5,34.7,29,52.1,43.5
		C322.9,339.8,323.9,341,325.5,341z"/>
	<path class="st0" d="M371.3,387.9l-1.6,1.9l-7.3-6.1c0.1,1.3-0.1,2.5-0.6,3.7L360,386c0.3-0.6,0.4-1.5,0.4-2.4c0-1-0.2-1.8-0.6-2.6
		l1.3-1.6L371.3,387.9z"/>
	<path class="st0" d="M369.6,378.8c-0.6,0.3-1.2,0.5-1.8,0.4c-0.6-0.1-1.1-0.3-1.5-0.7c-0.8-0.6-1.2-1.4-1.2-2.3s0.3-1.9,1.1-2.9
		c0.8-1,1.7-1.5,2.6-1.6s1.8,0.1,2.5,0.8c0.5,0.4,0.8,0.9,1,1.4c0.2,0.5,0.2,1.1,0,1.7c0.7-0.4,1.4-0.5,2.1-0.5
		c0.7,0.1,1.3,0.3,1.9,0.8c0.9,0.8,1.5,1.7,1.5,2.8c0.1,1.1-0.3,2.1-1.1,3.1c-0.8,0.9-1.6,1.5-2.6,1.7c-1.2,0.3-2.3,0-3.3-0.9
		c-0.5-0.5-0.9-1-1.2-1.7C369.4,380.3,369.4,379.6,369.6,378.8z M368,376.7c0.4,0.3,0.8,0.5,1.2,0.4c0.4,0,0.7-0.2,1-0.6
		c0.3-0.4,0.4-0.8,0.4-1.2c0-0.4-0.2-0.8-0.6-1.1c-0.4-0.3-0.7-0.4-1.1-0.4c-0.4,0-0.7,0.2-1,0.6c-0.3,0.4-0.4,0.8-0.4,1.2
		C367.4,376.1,367.6,376.4,368,376.7z M372.2,380.5c0.5,0.4,1.1,0.7,1.6,0.6c0.5,0,1-0.2,1.3-0.7c0.3-0.4,0.5-0.9,0.4-1.4
		c-0.1-0.5-0.4-1-0.9-1.4c-0.5-0.4-1-0.6-1.5-0.5c-0.5,0-0.9,0.2-1.3,0.7c-0.4,0.5-0.5,1-0.4,1.5
		C371.5,379.8,371.8,380.2,372.2,380.5z"/>
	<path class="st0" d="M373.7,364.3l1.7-2.1l5.5,4.5c0.9,0.7,1.5,1.2,1.8,1.3c0.5,0.3,1,0.3,1.5,0.2c0.5-0.1,1-0.5,1.5-1
		c0.5-0.6,0.7-1.1,0.7-1.6c0-0.5-0.1-0.9-0.4-1.3c-0.3-0.3-0.8-0.9-1.7-1.5l-5.6-4.6l1.7-2.1l5.3,4.4c1.2,1,2,1.8,2.4,2.3
		c0.4,0.5,0.7,1.1,0.8,1.7c0.1,0.6,0,1.2-0.2,1.9c-0.2,0.7-0.6,1.4-1.3,2.2c-0.8,1-1.5,1.6-2.2,1.9c-0.6,0.3-1.3,0.5-1.9,0.5
		c-0.6,0-1.1-0.1-1.6-0.4c-0.7-0.3-1.6-1-2.7-1.9L373.7,364.3z"/>
	<path class="st0" d="M388.6,360.2l1.5-2.2c0.8,0.4,1.5,0.6,2.1,0.5c0.6-0.1,1.2-0.5,1.7-1.1c0.5-0.7,0.8-1.3,0.8-1.8
		c0-0.6-0.2-1-0.6-1.3c-0.2-0.2-0.5-0.3-0.8-0.3c-0.3,0-0.6,0.1-1,0.4c-0.3,0.2-0.9,0.6-1.8,1.3c-1.2,0.9-2.2,1.4-2.9,1.5
		c-1.1,0.2-2-0.1-2.8-0.8c-0.5-0.4-0.9-1-1.1-1.6c-0.2-0.7-0.2-1.4,0-2.1c0.2-0.7,0.7-1.5,1.3-2.3c1.1-1.3,2.1-2,3.2-2.2
		c1.1-0.2,2.1,0.1,3.1,0.8l-1.6,2.1c-0.6-0.3-1.1-0.5-1.6-0.4c-0.5,0.1-0.9,0.4-1.4,1c-0.5,0.6-0.8,1.2-0.8,1.7
		c0,0.3,0.1,0.6,0.4,0.8c0.2,0.2,0.5,0.3,0.9,0.2c0.4-0.1,1.2-0.5,2.2-1.3s1.9-1.3,2.6-1.6c0.6-0.3,1.3-0.4,2-0.3s1.3,0.4,2,0.9
		c0.6,0.5,1,1.1,1.2,1.8c0.2,0.7,0.2,1.5,0,2.3c-0.2,0.8-0.7,1.6-1.5,2.5c-1.1,1.3-2.2,2-3.3,2.2C391,361.4,389.8,361.1,388.6,360.2
		z"/>
	<path class="st0" d="M401.8,343.4l2.3-1.5c0.9,1.2,1.3,2.4,1.2,3.6c0,1.2-0.5,2.3-1.4,3.4c-1.1,1.3-2.5,2.1-4.1,2.2
		c-1.6,0.1-3.3-0.5-4.9-1.8c-1.7-1.4-2.6-2.9-2.9-4.6s0.3-3.2,1.4-4.6c1-1.2,2.2-1.9,3.6-2.1c0.8-0.1,1.7,0.1,2.7,0.5l-1.2,2.4
		c-0.6-0.3-1.2-0.4-1.9-0.3c-0.6,0.1-1.2,0.5-1.6,1c-0.6,0.8-0.9,1.6-0.7,2.5c0.2,0.9,0.8,1.9,2,2.9c1.3,1.1,2.4,1.6,3.3,1.6
		c0.9,0,1.7-0.4,2.3-1.1c0.5-0.5,0.7-1.2,0.6-1.8C402.7,344.9,402.4,344.2,401.8,343.4z"/>
	<path class="st0" d="M403.3,332.4l-1.8-1.5l5.5-6.7l1.4,1.2c0.1,1,0.4,2.2,0.9,3.6c0.5,1.4,1.3,2.7,2.2,4s1.8,2.2,2.7,3l-1.6,1.9
		c-1.4-1.2-2.6-2.7-3.6-4.4c-1-1.8-1.7-3.6-2.1-5.4L403.3,332.4z"/>
	<path class="st0" d="M410.6,319.6c0.8-1,1.8-1.5,3-1.4c1.4,0,3,0.8,5,2.4c1.9,1.6,3,3.1,3.3,4.4c0.2,1.1,0,2.2-0.9,3.2
		c-0.8,1-1.9,1.5-3.1,1.4c-1.3,0-2.9-0.8-4.8-2.5c-1.9-1.6-3-3.1-3.3-4.4C409.5,321.7,409.7,320.6,410.6,319.6z M412.2,321
		c-0.2,0.2-0.3,0.5-0.3,0.8c0,0.3,0.1,0.7,0.5,1.1c0.4,0.5,1.2,1.3,2.4,2.3s2.1,1.6,2.6,1.9c0.5,0.2,1,0.3,1.3,0.3
		c0.3-0.1,0.5-0.2,0.7-0.4c0.2-0.2,0.3-0.5,0.3-0.8c0-0.3-0.1-0.7-0.5-1.1c-0.4-0.5-1.2-1.3-2.4-2.3s-2.1-1.6-2.6-1.9
		c-0.5-0.2-1-0.3-1.3-0.3C412.6,320.6,412.4,320.7,412.2,321z"/>
	<path class="st0" d="M416.3,316.7l-1.8-1.5l5.5-6.7l1.4,1.2c0.1,1,0.4,2.2,0.9,3.6c0.5,1.4,1.3,2.7,2.2,4c0.9,1.2,1.8,2.2,2.7,3
		l-1.6,1.9c-1.4-1.2-2.6-2.7-3.6-4.4s-1.7-3.6-2.1-5.4L416.3,316.7z"/>
</g>
</svg>
